<svg xmlns="http://www.w3.org/2000/svg" xmlns:xlink="http://www.w3.org/1999/xlink" viewBox="13.12 120.35 685.8 308.71"><defs></defs><path d="M 297.8109 121.2947 C 300.579 121.4774 303.3443 121.7027 306.1057 121.9788 C 314.6394 122.9066 323.1907 124.1484 331.421 126.6425 C 336.748 128.2476 341.8386 130.6042 346.4987 133.6451 C 352.1785 128.1947 359.2446 124.3918 366.5753 121.6472 C 367.5913 121.2741 368.6123 120.9196 369.6379 120.5827 L 370.3713 120.3486 L 462.6422 120.3486 L 463.0822 120.4829 C 469.5566 122.5083 475.8518 125.193 481.5068 128.9744 C 489.3597 134.1284 495.3287 141.7026 499.9042 149.8129 C 506.4694 161.631 509.5491 175.1001 510.4135 188.5127 C 510.5228 165.8679 510.4276 143.2195 510.4593 120.5747 C 533.6262 120.5924 556.7861 120.5394 579.953 120.61 C 593.0375 120.7017 606.122 120.991 619.1783 121.8447 C 628.8621 122.5291 638.5811 123.3793 648.0779 125.4572 C 660.3298 128.364 672.4902 133.6134 681.2814 142.8844 C 686.8976 149.0121 691.4695 156.1841 694.1648 164.0757 C 696.9235 171.791 697.3045 180.0495 697.9113 188.1422 C 699.2341 210.6777 698.8497 233.259 698.9131 255.8297 C 698.9131 281.2438 698.9131 306.6579 698.9131 332.072 C 698.8672 348.5961 698.7932 365.1837 696.6694 381.595 C 695.8545 388.2519 694.0236 394.8171 690.8203 400.7261 C 687.7935 406.5575 683.3203 411.6411 677.8945 415.3488 C 671.4246 419.8996 663.988 422.9758 656.301 424.7362 C 648.3353 426.5353 640.1756 427.2091 632.0405 427.6607 C 620.8646 428.271 609.671 428.0488 598.4879 428.0911 C 569.1439 428.0911 539.8034 428.0911 510.4593 428.0911 C 510.4452 409.6091 510.4839 391.1306 510.4416 372.6521 C 508.7448 381.274 506.3917 389.8994 502.1266 397.6393 C 495.8049 409.4292 485.2039 418.552 473.1989 424.2388 C 469.4348 425.9886 465.5641 427.4519 461.6181 428.6672 L 460.3008 429.0617 L 382.0993 429.0617 L 381.008 428.7409 C 378.3874 427.947 375.7966 427.0431 373.2428 426.0168 C 368.251 424.0165 363.5344 421.3848 359.0964 418.3509 C 354.4503 421.2684 349.2363 423.2086 343.8564 424.2635 C 332.3947 426.6024 320.6648 427.2197 309.0055 427.7277 C 294.8027 428.2816 280.5893 428.0382 266.3829 428.0911 C 218.8814 428.0911 171.3799 428.0911 123.8783 428.0911 C 115.588 385.2674 107.2131 342.4649 98.96514 299.6341 C 98.86636 342.4508 98.9475 385.2709 98.92281 428.0911 C 70.31958 428.0911 41.71989 428.0911 13.11667 428.0911 C 13.11667 325.5845 13.11667 223.0849 13.11667 120.5782 C 41.71989 120.5782 70.31958 120.5782 98.92281 120.5782 C 98.9334 159.4402 98.90164 198.3022 98.93692 237.1642 C 108.2467 198.3022 117.5847 159.4438 126.9016 120.5818 C 175.5532 120.5782 224.2083 120.5782 272.8599 120.5818 C 281.1784 120.5818 289.5068 120.7465 297.8109 121.2947 Z M 411.8382 354.4046 C 411.8363 359.885 411.9099 365.3641 412.4258 370.8212 C 412.7433 373.3083 412.9021 376.0846 414.6483 378.0566 C 416.7015 380.2051 419.9929 380.3215 422.7552 379.9123 C 426.0042 379.3901 428.5478 376.642 429.2639 373.4987 C 430.1212 369.664 430.3011 365.72 430.5374 361.8077 C 431.0948 350.032 430.9149 338.2421 430.9467 326.4558 C 430.9643 319.2662 431.0207 312.0131 429.599 304.9364 C 428.7206 300.0751 426.5157 295.2985 422.6387 292.1094 C 419.9858 289.8798 416.5921 288.765 413.1843 288.4017 C 404.2238 287.2269 395.1715 287.0752 386.1509 286.8988 C 386.151 269.8879 386.1509 252.8734 386.1509 235.8625 C 395.4996 235.8695 404.8588 235.8377 414.1897 235.1922 C 417.5023 234.8641 421.0724 234.7689 423.937 232.8603 C 427.1014 230.7648 428.9006 227.1489 429.6343 223.5117 C 430.989 217.01 430.9431 210.3178 430.9467 203.7068 C 430.8655 196.2561 431.176 188.7914 430.6186 181.3584 C 430.3505 178.515 430.0894 175.594 428.9253 172.9587 C 427.8987 170.6198 425.655 168.8806 423.1185 168.5419 C 420.4233 168.1645 417.3577 168.4679 415.2798 170.394 C 413.5653 171.9251 413.082 174.2958 412.7151 176.4583 C 411.9355 181.6089 411.8684 186.837 411.8438 192.037 C 411.8438 201.6713 411.8438 211.3057 411.8438 220.94 C 399.807 220.94 387.7737 220.9365 375.7334 220.94 C 374.9714 229.6819 373.4439 238.6742 368.8719 246.3083 C 364.7514 253.1945 357.3854 257.3996 349.903 259.7385 C 349.8995 261.6082 349.8995 263.4744 349.903 265.3477 C 357.9075 267.8277 365.4746 272.3503 370.5017 279.173 C 375.3559 285.6924 377.9735 293.5734 379.6492 301.4474 C 390.3807 301.451 401.1122 301.4439 411.8437 301.4474 C 411.8437 315.8125 411.8437 330.1776 411.8437 344.5428 C 411.8675 347.8275 411.8393 351.1163 411.8382 354.4046 Z M 613.114 278.6222 C 613.1096 260.2421 613.0982 241.8615 613.1071 223.48 C 613.0682 213.133 613.2834 202.7649 612.5073 192.4391 C 612.2427 188.9395 611.6642 185.0307 608.8385 182.6177 C 605.3742 179.7249 600.5518 179.6544 596.2655 179.5521 C 596.2655 242.7381 596.2655 305.9312 596.2655 369.1208 C 600.587 369.1313 605.4023 368.6057 608.7114 365.5295 C 611.135 363.2505 611.3396 359.691 611.8723 356.6077 C 612.8459 349.0371 612.9695 341.3854 613.0789 333.7618 C 613.1158 315.3821 613.1185 297.0024 613.114 278.6222 Z M 278.2433 292.9419 C 278.2397 318.3455 278.2433 343.7419 278.2433 369.1384 C 282.7377 368.8773 287.5214 368.5775 291.4337 366.1222 C 293.4515 364.9121 294.1783 362.5203 294.7251 360.3789 C 295.8116 355.6164 295.9386 350.7022 296.0092 345.8374 C 296.0127 335.7797 296.0233 325.715 296.0021 315.6608 C 295.8998 310.6196 295.8257 305.5325 294.7709 300.5831 C 294.3194 298.5264 293.4868 296.2227 291.3772 295.362 C 287.2815 293.4746 282.6742 293.2488 278.2433 292.9419 Z M 510.4734 289.2413 C 510.4241 261.9081 510.5299 234.5607 510.4205 207.2346 C 510.0254 213.0378 509.3833 218.8727 507.884 224.5172 C 506.4023 230.2992 503.9541 235.933 499.9959 240.4557 C 494.7289 246.7457 487.3876 250.9367 479.7288 253.6319 C 488.9575 255.618 497.2654 261.1672 502.8005 268.7872 C 507.383 274.6539 509.0376 282.1011 510.4734 289.2413 Z M 296.0129 206.2868 C 296.0183 203.706 295.9836 201.1254 295.8963 198.5457 C 295.674 194.6828 295.4589 190.7281 294.1571 187.0486 C 293.0423 184.3181 291.1373 181.5524 288.1705 180.688 C 284.9461 179.792 281.5735 179.6756 278.2468 179.545 C 278.2468 199.2618 278.2468 218.975 278.2397 238.6883 C 282.205 238.3602 286.3607 238.8365 290.1213 237.2525 C 292.0228 236.5116 293.642 234.9418 294.1289 232.9203 C 295.3001 228.4436 295.4624 223.7834 295.7093 219.1867 C 295.8835 214.8894 296.0039 210.588 296.0129 206.2868 Z M 298.327 241.7786 L 298.327 288.6028 L 289.765 288.6028 L 289.765 241.9585 C 289.765 241.8068 289.7051 241.6622 289.5992 241.5563 C 289.4934 241.4505 289.3452 241.3905 289.1971 241.3905 L 279.5804 241.3905 C 279.4286 241.3905 279.284 241.4505 279.1782 241.5563 C 279.0724 241.6622 279.0124 241.8103 279.0124 241.9585 L 279.0124 289.1707 C 279.0124 289.4847 279.2664 289.7387 279.5804 289.7387 C 279.8943 289.7387 280.1483 289.4847 280.1483 289.1707 L 280.1483 242.5265 L 288.6326 242.5265 L 288.6326 289.1672 C 288.6326 289.3189 288.6926 289.4635 288.7984 289.5694 C 288.9043 289.6752 289.0524 289.7352 289.2006 289.7352 L 298.8985 289.7352 C 299.0502 289.7352 299.1948 289.6752 299.3006 289.5694 C 299.4065 289.4635 299.4664 289.3154 299.4664 289.1672 L 299.4664 242.343 L 307.9507 242.343 L 307.9507 289.1672 C 307.9507 289.3189 308.0107 289.4635 308.1165 289.5694 C 308.2224 289.6752 308.3705 289.7352 308.5187 289.7352 L 318.1354 289.7352 C 318.2871 289.7352 318.4318 289.6752 318.5376 289.5694 C 318.6434 289.4635 318.7034 289.3154 318.7034 289.1672 L 318.7034 242.1172 L 327.1877 242.1172 L 327.1877 288.6627 C 327.1877 288.8144 327.2477 288.959 327.3535 289.0649 C 327.4594 289.1707 327.6075 289.2307 327.7557 289.2307 L 337.316 289.2307 C 337.4677 289.2307 337.6123 289.1707 337.7181 289.0649 C 337.824 288.959 337.8839 288.8109 337.8839 288.6627 L 337.8839 262.4478 L 347.5994 262.4478 C 347.9134 262.4478 348.1674 262.1974 348.1674 261.8834 C 348.1674 261.5694 347.9134 261.3154 347.5994 261.3154 L 337.3159 261.3154 C 337.1642 261.3154 337.0196 261.3754 336.9138 261.4812 C 336.808 261.5871 336.748 261.7352 336.748 261.8834 L 336.748 288.0983 L 328.3166 288.0983 L 328.3166 241.5528 C 328.3166 241.4011 328.2566 241.2565 328.1508 241.1506 C 328.045 241.0448 327.8968 240.9848 327.7486 240.9848 L 318.1319 240.9848 C 317.9802 240.9848 317.8356 241.0448 317.7297 241.1506 C 317.6239 241.2565 317.5639 241.4046 317.5639 241.5528 L 317.5639 288.6028 L 309.0796 288.6028 L 309.0796 241.7786 C 309.0796 241.6269 309.0197 241.4822 308.9138 241.3764 C 308.808 241.2706 308.6598 241.2106 308.5117 241.2106 L 298.8949 241.2106 C 298.7432 241.2106 298.5986 241.2706 298.4928 241.3764 C 298.3869 241.4822 298.327 241.6304 298.327 241.7786 Z M 192.4372 363.1271 C 192.4442 297.4363 192.4407 231.7491 192.4372 166.0583 C 182.4077 197.3145 172.2865 228.5424 162.3205 259.8161 C 166.695 275.3489 171.3552 290.8112 175.839 306.3193 C 181.3705 325.2564 186.8986 344.19 192.4372 363.1271 Z" fill="#FAA241" fill-opacity="1" stroke="none" stroke-opacity="1" stroke-width="0.1" stroke-linecap="butt" stroke-linejoin="miter"></path></svg>